<?xml version="1.0" encoding="UTF-8" standalone="no"?>
<svg width="100px" height="100px" viewBox="0 0 100 100" version="1.1" xmlns="http://www.w3.org/2000/svg" xmlns:xlink="http://www.w3.org/1999/xlink">
    <!-- Generator: Sketch 3.8.3 (29802) - http://www.bohemiancoding.com/sketch -->
    <title>Artboard 1</title>
    <desc>Created with Sketch.</desc>
    <defs></defs>
    <g id="Page-1" stroke="none" stroke-width="1" fill="none" fill-rule="evenodd">
        <g id="Artboard-1" fill="#377CB5">
            <path d="M85.6679859,36 C93.3722074,40.6139486 98.3078036,47.7161403 98.3078036,55.682367 C98.3078036,63.6182413 93.4097464,70.6966522 85.7559278,75.3118864 C85.9074493,80.334306 88.617028,84.8076127 92.8025676,87.7986483 C90.7224488,88.3514234 88.4472606,88.6559617 86.0631888,88.6559617 C78.1514,88.6559617 71.4387596,85.3020423 69.0752111,80.6519204 C67.647524,80.7906525 66.191712,80.862203 64.713604,80.862203 C56.4349606,80.862203 48.8557291,78.617709 43,74.896307 C44.370674,75.0019986 45.7617309,75.0561584 47.1696647,75.0561584 C69.4086579,75.0561584 87.4369239,61.5434453 87.4369239,44.8746689 C87.4369239,41.7861315 86.8179786,38.8059479 85.6679859,36 Z" id="Combined-Shape" stroke="#377CB5"></path>
            <path d="M38.0392744,72.1109265 C35.2062371,77.6847358 27.1602162,81.7048685 17.6768515,81.7048685 C14.8192142,81.7048685 12.0920888,81.3398376 9.59878098,80.6772607 C14.6157246,77.0920941 17.8635266,71.730222 18.045146,65.7101627 C8.87099381,60.1781711 3,51.693724 3,42.1814895 C3,25.5127131 21.028266,12 43.2672592,12 C65.5062523,12 83.5345183,25.5127131 83.5345183,42.1814895 C83.5345183,58.8502658 65.5062523,72.3629789 43.2672592,72.3629789 C41.4955439,72.3629789 39.7505534,72.2772159 38.0392744,72.1109265 Z" id="Combined-Shape"></path>
        </g>
    </g>
</svg>